<svg id="visual" viewBox="0 0 2000 540" width="2000" height="540" xmlns="http://www.w3.org/2000/svg" xmlns:xlink="http://www.w3.org/1999/xlink" version="1.1"><path d="M0 258L100 258L100 232L200 232L200 242L300 242L300 212L400 212L400 290L500 290L500 224L600 224L600 235L700 235L700 214L800 214L800 286L900 286L900 264L1000 264L1000 269L1100 269L1100 258L1200 258L1200 283L1300 283L1300 231L1400 231L1400 257L1500 257L1500 212L1600 212L1600 235L1700 235L1700 247L1800 247L1800 280L1900 280L1900 257L2000 257L2000 268L2000 541L2000 541L1900 541L1900 541L1800 541L1800 541L1700 541L1700 541L1600 541L1600 541L1500 541L1500 541L1400 541L1400 541L1300 541L1300 541L1200 541L1200 541L1100 541L1100 541L1000 541L1000 541L900 541L900 541L800 541L800 541L700 541L700 541L600 541L600 541L500 541L500 541L400 541L400 541L300 541L300 541L200 541L200 541L100 541L100 541L0 541Z" fill="#252525"></path><path d="M0 267L100 267L100 326L200 326L200 290L300 290L300 268L400 268L400 314L500 314L500 337L600 337L600 274L700 274L700 314L800 314L800 308L900 308L900 275L1000 275L1000 326L1100 326L1100 269L1200 269L1200 325L1300 325L1300 334L1400 334L1400 322L1500 322L1500 288L1600 288L1600 312L1700 312L1700 294L1800 294L1800 344L1900 344L1900 315L2000 315L2000 293L2000 541L2000 541L1900 541L1900 541L1800 541L1800 541L1700 541L1700 541L1600 541L1600 541L1500 541L1500 541L1400 541L1400 541L1300 541L1300 541L1200 541L1200 541L1100 541L1100 541L1000 541L1000 541L900 541L900 541L800 541L800 541L700 541L700 541L600 541L600 541L500 541L500 541L400 541L400 541L300 541L300 541L200 541L200 541L100 541L100 541L0 541Z" fill="#424242"></path><path d="M0 347L100 347L100 382L200 382L200 380L300 380L300 337L400 337L400 356L500 356L500 366L600 366L600 357L700 357L700 366L800 366L800 319L900 319L900 372L1000 372L1000 359L1100 359L1100 364L1200 364L1200 319L1300 319L1300 350L1400 350L1400 318L1500 318L1500 376L1600 376L1600 324L1700 324L1700 321L1800 321L1800 351L1900 351L1900 347L2000 347L2000 318L2000 541L2000 541L1900 541L1900 541L1800 541L1800 541L1700 541L1700 541L1600 541L1600 541L1500 541L1500 541L1400 541L1400 541L1300 541L1300 541L1200 541L1200 541L1100 541L1100 541L1000 541L1000 541L900 541L900 541L800 541L800 541L700 541L700 541L600 541L600 541L500 541L500 541L400 541L400 541L300 541L300 541L200 541L200 541L100 541L100 541L0 541Z" fill="#626262"></path><path d="M0 373L100 373L100 416L200 416L200 422L300 422L300 402L400 402L400 419L500 419L500 368L600 368L600 410L700 410L700 425L800 425L800 427L900 427L900 361L1000 361L1000 422L1100 422L1100 419L1200 419L1200 403L1300 403L1300 410L1400 410L1400 398L1500 398L1500 402L1600 402L1600 385L1700 385L1700 362L1800 362L1800 386L1900 386L1900 359L2000 359L2000 377L2000 541L2000 541L1900 541L1900 541L1800 541L1800 541L1700 541L1700 541L1600 541L1600 541L1500 541L1500 541L1400 541L1400 541L1300 541L1300 541L1200 541L1200 541L1100 541L1100 541L1000 541L1000 541L900 541L900 541L800 541L800 541L700 541L700 541L600 541L600 541L500 541L500 541L400 541L400 541L300 541L300 541L200 541L200 541L100 541L100 541L0 541Z" fill="#848484"></path><path d="M0 435L100 435L100 461L200 461L200 463L300 463L300 432L400 432L400 419L500 419L500 452L600 452L600 454L700 454L700 451L800 451L800 460L900 460L900 412L1000 412L1000 467L1100 467L1100 427L1200 427L1200 435L1300 435L1300 422L1400 422L1400 469L1500 469L1500 432L1600 432L1600 421L1700 421L1700 462L1800 462L1800 456L1900 456L1900 450L2000 450L2000 442L2000 541L2000 541L1900 541L1900 541L1800 541L1800 541L1700 541L1700 541L1600 541L1600 541L1500 541L1500 541L1400 541L1400 541L1300 541L1300 541L1200 541L1200 541L1100 541L1100 541L1000 541L1000 541L900 541L900 541L800 541L800 541L700 541L700 541L600 541L600 541L500 541L500 541L400 541L400 541L300 541L300 541L200 541L200 541L100 541L100 541L0 541Z" fill="#a7a7a7"></path><path d="M0 493L100 493L100 463L200 463L200 483L300 483L300 501L400 501L400 511L500 511L500 471L600 471L600 505L700 505L700 495L800 495L800 473L900 473L900 477L1000 477L1000 489L1100 489L1100 480L1200 480L1200 485L1300 485L1300 509L1400 509L1400 499L1500 499L1500 509L1600 509L1600 469L1700 469L1700 512L1800 512L1800 475L1900 475L1900 473L2000 473L2000 478L2000 541L2000 541L1900 541L1900 541L1800 541L1800 541L1700 541L1700 541L1600 541L1600 541L1500 541L1500 541L1400 541L1400 541L1300 541L1300 541L1200 541L1200 541L1100 541L1100 541L1000 541L1000 541L900 541L900 541L800 541L800 541L700 541L700 541L600 541L600 541L500 541L500 541L400 541L400 541L300 541L300 541L200 541L200 541L100 541L100 541L0 541Z" fill="#cccccc"></path></svg>