<svg id="visual" viewBox="0 0 2000 540" width="2000" height="540" xmlns="http://www.w3.org/2000/svg" xmlns:xlink="http://www.w3.org/1999/xlink" version="1.1"><path d="M0 321L91 321L91 296L182 296L182 273L273 273L273 287L364 287L364 259L455 259L455 276L545 276L545 261L636 261L636 311L727 311L727 258L818 258L818 296L909 296L909 282L1000 282L1000 288L1091 288L1091 294L1182 294L1182 299L1273 299L1273 294L1364 294L1364 307L1455 307L1455 308L1545 308L1545 321L1636 321L1636 265L1727 265L1727 307L1818 307L1818 319L1909 319L1909 287L2000 287L2000 257L2000 541L2000 541L1909 541L1909 541L1818 541L1818 541L1727 541L1727 541L1636 541L1636 541L1545 541L1545 541L1455 541L1455 541L1364 541L1364 541L1273 541L1273 541L1182 541L1182 541L1091 541L1091 541L1000 541L1000 541L909 541L909 541L818 541L818 541L727 541L727 541L636 541L636 541L545 541L545 541L455 541L455 541L364 541L364 541L273 541L273 541L182 541L182 541L91 541L91 541L0 541Z" fill="#00404c"></path><path d="M0 296L91 296L91 334L182 334L182 345L273 345L273 326L364 326L364 315L455 315L455 360L545 360L545 313L636 313L636 355L727 355L727 342L818 342L818 323L909 323L909 340L1000 340L1000 291L1091 291L1091 300L1182 300L1182 320L1273 320L1273 351L1364 351L1364 328L1455 328L1455 354L1545 354L1545 340L1636 340L1636 321L1727 321L1727 350L1818 350L1818 320L1909 320L1909 302L2000 302L2000 347L2000 541L2000 541L1909 541L1909 541L1818 541L1818 541L1727 541L1727 541L1636 541L1636 541L1545 541L1545 541L1455 541L1455 541L1364 541L1364 541L1273 541L1273 541L1182 541L1182 541L1091 541L1091 541L1000 541L1000 541L909 541L909 541L818 541L818 541L727 541L727 541L636 541L636 541L545 541L545 541L455 541L455 541L364 541L364 541L273 541L273 541L182 541L182 541L91 541L91 541L0 541Z" fill="#005b68"></path><path d="M0 373L91 373L91 351L182 351L182 372L273 372L273 342L364 342L364 349L455 349L455 340L545 340L545 338L636 338L636 367L727 367L727 343L818 343L818 332L909 332L909 374L1000 374L1000 393L1091 393L1091 368L1182 368L1182 340L1273 340L1273 374L1364 374L1364 341L1455 341L1455 348L1545 348L1545 338L1636 338L1636 372L1727 372L1727 344L1818 344L1818 344L1909 344L1909 390L2000 390L2000 368L2000 541L2000 541L1909 541L1909 541L1818 541L1818 541L1727 541L1727 541L1636 541L1636 541L1545 541L1545 541L1455 541L1455 541L1364 541L1364 541L1273 541L1273 541L1182 541L1182 541L1091 541L1091 541L1000 541L1000 541L909 541L909 541L818 541L818 541L727 541L727 541L636 541L636 541L545 541L545 541L455 541L455 541L364 541L364 541L273 541L273 541L182 541L182 541L91 541L91 541L0 541Z" fill="#007984"></path><path d="M0 423L91 423L91 414L182 414L182 415L273 415L273 404L364 404L364 416L455 416L455 397L545 397L545 372L636 372L636 373L727 373L727 388L818 388L818 377L909 377L909 402L1000 402L1000 406L1091 406L1091 371L1182 371L1182 369L1273 369L1273 380L1364 380L1364 409L1455 409L1455 415L1545 415L1545 397L1636 397L1636 406L1727 406L1727 404L1818 404L1818 392L1909 392L1909 375L2000 375L2000 381L2000 541L2000 541L1909 541L1909 541L1818 541L1818 541L1727 541L1727 541L1636 541L1636 541L1545 541L1545 541L1455 541L1455 541L1364 541L1364 541L1273 541L1273 541L1182 541L1182 541L1091 541L1091 541L1000 541L1000 541L909 541L909 541L818 541L818 541L727 541L727 541L636 541L636 541L545 541L545 541L455 541L455 541L364 541L364 541L273 541L273 541L182 541L182 541L91 541L91 541L0 541Z" fill="#00979f"></path><path d="M0 435L91 435L91 433L182 433L182 439L273 439L273 431L364 431L364 455L455 455L455 436L545 436L545 437L636 437L636 455L727 455L727 404L818 404L818 444L909 444L909 439L1000 439L1000 422L1091 422L1091 437L1182 437L1182 450L1273 450L1273 409L1364 409L1364 426L1455 426L1455 446L1545 446L1545 448L1636 448L1636 421L1727 421L1727 443L1818 443L1818 437L1909 437L1909 428L2000 428L2000 448L2000 541L2000 541L1909 541L1909 541L1818 541L1818 541L1727 541L1727 541L1636 541L1636 541L1545 541L1545 541L1455 541L1455 541L1364 541L1364 541L1273 541L1273 541L1182 541L1182 541L1091 541L1091 541L1000 541L1000 541L909 541L909 541L818 541L818 541L727 541L727 541L636 541L636 541L545 541L545 541L455 541L455 541L364 541L364 541L273 541L273 541L182 541L182 541L91 541L91 541L0 541Z" fill="#00b6b9"></path><path d="M0 453L91 453L91 470L182 470L182 459L273 459L273 480L364 480L364 466L455 466L455 471L545 471L545 466L636 466L636 475L727 475L727 464L818 464L818 482L909 482L909 471L1000 471L1000 460L1091 460L1091 444L1182 444L1182 447L1273 447L1273 459L1364 459L1364 453L1455 453L1455 454L1545 454L1545 467L1636 467L1636 479L1727 479L1727 462L1818 462L1818 474L1909 474L1909 461L2000 461L2000 472L2000 541L2000 541L1909 541L1909 541L1818 541L1818 541L1727 541L1727 541L1636 541L1636 541L1545 541L1545 541L1455 541L1455 541L1364 541L1364 541L1273 541L1273 541L1182 541L1182 541L1091 541L1091 541L1000 541L1000 541L909 541L909 541L818 541L818 541L727 541L727 541L636 541L636 541L545 541L545 541L455 541L455 541L364 541L364 541L273 541L273 541L182 541L182 541L91 541L91 541L0 541Z" fill="#00d7d1"></path><path d="M0 496L91 496L91 492L182 492L182 483L273 483L273 499L364 499L364 481L455 481L455 479L545 479L545 494L636 494L636 493L727 493L727 499L818 499L818 483L909 483L909 487L1000 487L1000 512L1091 512L1091 495L1182 495L1182 499L1273 499L1273 501L1364 501L1364 511L1455 511L1455 481L1545 481L1545 480L1636 480L1636 510L1727 510L1727 514L1818 514L1818 495L1909 495L1909 515L2000 515L2000 490L2000 541L2000 541L1909 541L1909 541L1818 541L1818 541L1727 541L1727 541L1636 541L1636 541L1545 541L1545 541L1455 541L1455 541L1364 541L1364 541L1273 541L1273 541L1182 541L1182 541L1091 541L1091 541L1000 541L1000 541L909 541L909 541L818 541L818 541L727 541L727 541L636 541L636 541L545 541L545 541L455 541L455 541L364 541L364 541L273 541L273 541L182 541L182 541L91 541L91 541L0 541Z" fill="#00f8e6"></path></svg>