<svg id="visual" viewBox="0 0 2000 540" width="2000" height="540" xmlns="http://www.w3.org/2000/svg" xmlns:xlink="http://www.w3.org/1999/xlink" version="1.1"><path d="M0 351L87 351L87 390L174 390L174 392L261 392L261 356L348 356L348 375L435 375L435 373L522 373L522 383L609 383L609 389L696 389L696 388L783 388L783 350L870 350L870 368L957 368L957 381L1043 381L1043 369L1130 369L1130 390L1217 390L1217 350L1304 350L1304 358L1391 358L1391 362L1478 362L1478 352L1565 352L1565 347L1652 347L1652 382L1739 382L1739 352L1826 352L1826 373L1913 373L1913 368L2000 368L2000 392L2000 541L2000 541L1913 541L1913 541L1826 541L1826 541L1739 541L1739 541L1652 541L1652 541L1565 541L1565 541L1478 541L1478 541L1391 541L1391 541L1304 541L1304 541L1217 541L1217 541L1130 541L1130 541L1043 541L1043 541L957 541L957 541L870 541L870 541L783 541L783 541L696 541L696 541L609 541L609 541L522 541L522 541L435 541L435 541L348 541L348 541L261 541L261 541L174 541L174 541L87 541L87 541L0 541Z" fill="#b4b4b4"></path><path d="M0 396L87 396L87 374L174 374L174 373L261 373L261 409L348 409L348 397L435 397L435 383L522 383L522 406L609 406L609 373L696 373L696 382L783 382L783 399L870 399L870 370L957 370L957 391L1043 391L1043 370L1130 370L1130 388L1217 388L1217 411L1304 411L1304 410L1391 410L1391 379L1478 379L1478 398L1565 398L1565 404L1652 404L1652 380L1739 380L1739 380L1826 380L1826 391L1913 391L1913 409L2000 409L2000 377L2000 541L2000 541L1913 541L1913 541L1826 541L1826 541L1739 541L1739 541L1652 541L1652 541L1565 541L1565 541L1478 541L1478 541L1391 541L1391 541L1304 541L1304 541L1217 541L1217 541L1130 541L1130 541L1043 541L1043 541L957 541L957 541L870 541L870 541L783 541L783 541L696 541L696 541L609 541L609 541L522 541L522 541L435 541L435 541L348 541L348 541L261 541L261 541L174 541L174 541L87 541L87 541L0 541Z" fill="#9b9b9b"></path><path d="M0 424L87 424L87 391L174 391L174 394L261 394L261 403L348 403L348 423L435 423L435 409L522 409L522 400L609 400L609 425L696 425L696 389L783 389L783 422L870 422L870 414L957 414L957 416L1043 416L1043 410L1130 410L1130 402L1217 402L1217 387L1304 387L1304 422L1391 422L1391 409L1478 409L1478 407L1565 407L1565 396L1652 396L1652 425L1739 425L1739 398L1826 398L1826 415L1913 415L1913 402L2000 402L2000 396L2000 541L2000 541L1913 541L1913 541L1826 541L1826 541L1739 541L1739 541L1652 541L1652 541L1565 541L1565 541L1478 541L1478 541L1391 541L1391 541L1304 541L1304 541L1217 541L1217 541L1130 541L1130 541L1043 541L1043 541L957 541L957 541L870 541L870 541L783 541L783 541L696 541L696 541L609 541L609 541L522 541L522 541L435 541L435 541L348 541L348 541L261 541L261 541L174 541L174 541L87 541L87 541L0 541Z" fill="#838383"></path><path d="M0 415L87 415L87 429L174 429L174 413L261 413L261 443L348 443L348 408L435 408L435 408L522 408L522 440L609 440L609 429L696 429L696 410L783 410L783 425L870 425L870 416L957 416L957 433L1043 433L1043 422L1130 422L1130 429L1217 429L1217 419L1304 419L1304 422L1391 422L1391 425L1478 425L1478 439L1565 439L1565 436L1652 436L1652 441L1739 441L1739 441L1826 441L1826 428L1913 428L1913 414L2000 414L2000 418L2000 541L2000 541L1913 541L1913 541L1826 541L1826 541L1739 541L1739 541L1652 541L1652 541L1565 541L1565 541L1478 541L1478 541L1391 541L1391 541L1304 541L1304 541L1217 541L1217 541L1130 541L1130 541L1043 541L1043 541L957 541L957 541L870 541L870 541L783 541L783 541L696 541L696 541L609 541L609 541L522 541L522 541L435 541L435 541L348 541L348 541L261 541L261 541L174 541L174 541L87 541L87 541L0 541Z" fill="#6c6c6c"></path><path d="M0 443L87 443L87 427L174 427L174 459L261 459L261 439L348 439L348 460L435 460L435 458L522 458L522 427L609 427L609 455L696 455L696 444L783 444L783 445L870 445L870 436L957 436L957 431L1043 431L1043 441L1130 441L1130 447L1217 447L1217 453L1304 453L1304 443L1391 443L1391 452L1478 452L1478 434L1565 434L1565 442L1652 442L1652 428L1739 428L1739 458L1826 458L1826 427L1913 427L1913 440L2000 440L2000 434L2000 541L2000 541L1913 541L1913 541L1826 541L1826 541L1739 541L1739 541L1652 541L1652 541L1565 541L1565 541L1478 541L1478 541L1391 541L1391 541L1304 541L1304 541L1217 541L1217 541L1130 541L1130 541L1043 541L1043 541L957 541L957 541L870 541L870 541L783 541L783 541L696 541L696 541L609 541L609 541L522 541L522 541L435 541L435 541L348 541L348 541L261 541L261 541L174 541L174 541L87 541L87 541L0 541Z" fill="#565656"></path><path d="M0 459L87 459L87 462L174 462L174 452L261 452L261 474L348 474L348 458L435 458L435 461L522 461L522 462L609 462L609 469L696 469L696 478L783 478L783 453L870 453L870 451L957 451L957 460L1043 460L1043 453L1130 453L1130 467L1217 467L1217 464L1304 464L1304 467L1391 467L1391 454L1478 454L1478 455L1565 455L1565 464L1652 464L1652 457L1739 457L1739 448L1826 448L1826 460L1913 460L1913 464L2000 464L2000 475L2000 541L2000 541L1913 541L1913 541L1826 541L1826 541L1739 541L1739 541L1652 541L1652 541L1565 541L1565 541L1478 541L1478 541L1391 541L1391 541L1304 541L1304 541L1217 541L1217 541L1130 541L1130 541L1043 541L1043 541L957 541L957 541L870 541L870 541L783 541L783 541L696 541L696 541L609 541L609 541L522 541L522 541L435 541L435 541L348 541L348 541L261 541L261 541L174 541L174 541L87 541L87 541L0 541Z" fill="#414141"></path><path d="M0 473L87 473L87 492L174 492L174 494L261 494L261 480L348 480L348 494L435 494L435 487L522 487L522 484L609 484L609 480L696 480L696 488L783 488L783 470L870 470L870 473L957 473L957 479L1043 479L1043 479L1130 479L1130 487L1217 487L1217 490L1304 490L1304 468L1391 468L1391 477L1478 477L1478 484L1565 484L1565 481L1652 481L1652 469L1739 469L1739 469L1826 469L1826 479L1913 479L1913 488L2000 488L2000 483L2000 541L2000 541L1913 541L1913 541L1826 541L1826 541L1739 541L1739 541L1652 541L1652 541L1565 541L1565 541L1478 541L1478 541L1391 541L1391 541L1304 541L1304 541L1217 541L1217 541L1130 541L1130 541L1043 541L1043 541L957 541L957 541L870 541L870 541L783 541L783 541L696 541L696 541L609 541L609 541L522 541L522 541L435 541L435 541L348 541L348 541L261 541L261 541L174 541L174 541L87 541L87 541L0 541Z" fill="#2d2d2d"></path><path d="M0 489L87 489L87 504L174 504L174 498L261 498L261 508L348 508L348 510L435 510L435 493L522 493L522 501L609 501L609 492L696 492L696 491L783 491L783 511L870 511L870 510L957 510L957 506L1043 506L1043 498L1130 498L1130 506L1217 506L1217 490L1304 490L1304 509L1391 509L1391 488L1478 488L1478 493L1565 493L1565 503L1652 503L1652 494L1739 494L1739 507L1826 507L1826 505L1913 505L1913 497L2000 497L2000 503L2000 541L2000 541L1913 541L1913 541L1826 541L1826 541L1739 541L1739 541L1652 541L1652 541L1565 541L1565 541L1478 541L1478 541L1391 541L1391 541L1304 541L1304 541L1217 541L1217 541L1130 541L1130 541L1043 541L1043 541L957 541L957 541L870 541L870 541L783 541L783 541L696 541L696 541L609 541L609 541L522 541L522 541L435 541L435 541L348 541L348 541L261 541L261 541L174 541L174 541L87 541L87 541L0 541Z" fill="#1a1a1a"></path><path d="M0 513L87 513L87 514L174 514L174 522L261 522L261 516L348 516L348 524L435 524L435 520L522 520L522 519L609 519L609 520L696 520L696 518L783 518L783 528L870 528L870 508L957 508L957 517L1043 517L1043 513L1130 513L1130 515L1217 515L1217 524L1304 524L1304 513L1391 513L1391 511L1478 511L1478 527L1565 527L1565 526L1652 526L1652 518L1739 518L1739 517L1826 517L1826 509L1913 509L1913 523L2000 523L2000 515L2000 541L2000 541L1913 541L1913 541L1826 541L1826 541L1739 541L1739 541L1652 541L1652 541L1565 541L1565 541L1478 541L1478 541L1391 541L1391 541L1304 541L1304 541L1217 541L1217 541L1130 541L1130 541L1043 541L1043 541L957 541L957 541L870 541L870 541L783 541L783 541L696 541L696 541L609 541L609 541L522 541L522 541L435 541L435 541L348 541L348 541L261 541L261 541L174 541L174 541L87 541L87 541L0 541Z" fill="#000000"></path></svg>