<svg width="38" height="58" viewBox="0 0 38 58" fill="none" xmlns="http://www.w3.org/2000/svg">
<g clip-path="url(#clip0_260_31)">
<path d="M9.5 0.000650406C14.744 0.000650406 19 4.33132 19 9.66732V19.334H9.5C4.256 19.334 0 15.0033 0 9.66732C0 4.33132 4.256 0.000650406 9.5 0.000650406Z" fill="#0ACF83"/>
<path d="M0 28.9993C0 34.3353 4.256 38.666 9.5 38.666H19V19.3327H9.5C4.256 19.3327 0 23.6633 0 28.9993Z" fill="#A259FF"/>
<path d="M0 48.3333C0 53.6693 4.256 58 9.5 58H19V38.6667H9.5C4.256 38.6667 0 42.9973 0 48.3333Z" fill="#F24E1E"/>
<path d="M19 58H28.5C33.744 58 38 53.6693 38 48.3333C38 42.9973 33.744 38.6667 28.5 38.6667H19V58Z" fill="#FF7262"/>
<path d="M38 28.9993C38 23.6633 33.744 19.3327 28.5 19.3327C23.256 19.3327 19 23.6633 19 28.9993C19 34.3353 23.256 38.666 28.5 38.666C33.744 38.666 38 34.3353 38 28.9993Z" fill="#1ABCFE"/>
</g>
<defs>
<clipPath id="clip0_260_31">
<rect width="38" height="58" fill="white" transform="matrix(1 0 0 -1 0 58)"/>
</clipPath>
</defs>
</svg>
