<svg width="19" height="19" viewBox="0 0 19 19" fill="none" xmlns="http://www.w3.org/2000/svg">
<path d="M11.0833 8.70833H16.625V4.75H11.0833V8.70833ZM13.8542 7.71875L11.875 6.33333V5.54167L13.8542 6.92708L15.8333 5.54167V6.33333L13.8542 7.71875ZM0 16.625V2.375H19V16.625H0ZM7.125 11.0833C7.78472 11.0833 8.34549 10.8524 8.80729 10.3906C9.2691 9.92882 9.5 9.36806 9.5 8.70833C9.5 8.04861 9.2691 7.48785 8.80729 7.02604C8.34549 6.56424 7.78472 6.33333 7.125 6.33333C6.46528 6.33333 5.90451 6.56424 5.44271 7.02604C4.9809 7.48785 4.75 8.04861 4.75 8.70833C4.75 9.36806 4.9809 9.92882 5.44271 10.3906C5.90451 10.8524 6.46528 11.0833 7.125 11.0833ZM1.6625 15.0417H12.5875C12.0333 14.0521 11.2681 13.277 10.2917 12.7165C9.31528 12.156 8.25972 11.8755 7.125 11.875C5.99028 11.875 4.93472 12.1555 3.95833 12.7165C2.98194 13.2776 2.21667 14.0526 1.6625 15.0417Z" fill="white"/>
</svg>
