<svg width="62" height="62" viewBox="0 0 62 62" fill="none" xmlns="http://www.w3.org/2000/svg">
<g clip-path="url(#clip0_260_37)">
<path d="M30.7394 62.0003C29.9076 62.0003 29.0861 61.7833 28.355 61.3622L20.7729 56.8724C19.6388 56.2395 20.1917 56.0147 20.5662 55.8855C22.0749 55.3585 22.3823 55.2397 23.9943 54.3226C24.1648 54.227 24.387 54.2606 24.5601 54.3614L30.3855 57.8205C30.4945 57.8767 30.6154 57.906 30.7381 57.906C30.8608 57.906 30.9817 57.8767 31.0907 57.8205L53.8086 44.7049C53.9141 44.6413 54.0014 44.5515 54.0621 44.4442C54.1227 44.337 54.1546 44.2159 54.1547 44.0926V17.8744C54.1551 17.7487 54.1229 17.6251 54.0613 17.5156C53.9998 17.406 53.9109 17.3143 53.8034 17.2492L31.0959 4.14654C30.9896 4.08484 30.8688 4.05235 30.7459 4.05235C30.6229 4.05235 30.5022 4.08484 30.3958 4.14654L7.68833 17.2492C7.57978 17.3125 7.48959 17.4029 7.42663 17.5116C7.36366 17.6203 7.3301 17.7436 7.32924 17.8692V44.0849C7.32924 44.3355 7.46616 44.5757 7.68316 44.6945L13.9038 48.288C17.2828 49.9775 19.3469 47.9883 19.3469 45.9862V20.1115C19.3455 20.0248 19.3616 19.9386 19.3942 19.8582C19.4269 19.7778 19.4754 19.7048 19.5369 19.6435C19.5984 19.5823 19.6716 19.534 19.7521 19.5017C19.8327 19.4694 19.9189 19.4536 20.0057 19.4554H22.8835C23.2426 19.4554 23.5371 19.7395 23.5371 20.1115V45.9965C23.5371 50.5019 21.0829 53.0878 16.8101 53.0878C15.4952 53.0878 14.4592 53.0878 11.5711 51.667L5.61133 48.2311C4.88692 47.8081 4.28589 47.2027 3.86803 46.4753C3.45016 45.7479 3.23002 44.9238 3.22949 44.0849V17.8692C3.22949 16.1642 4.13883 14.5703 5.61133 13.7307L28.355 0.609957C29.0874 0.209742 29.9087 0 30.7433 0C31.5779 0 32.3992 0.209742 33.1316 0.609957L55.8442 13.7333C57.3116 14.5832 58.2261 16.1694 58.2261 17.8744V44.0926C58.2242 44.9302 58.0034 45.7527 57.5856 46.4787C57.1678 47.2046 56.5675 47.8087 55.8442 48.2311L33.1316 61.3519C32.4032 61.7708 31.5771 61.99 30.7368 61.9874L30.7394 62.0003ZM37.7557 43.935C27.8151 43.935 25.7329 39.3729 25.7329 35.5444C25.7329 35.1827 26.0248 34.8908 26.3891 34.8908H29.3237C29.6492 34.8908 29.9205 35.1259 29.9722 35.4462C30.4165 38.4377 31.7366 39.9464 37.748 39.9464C42.5349 39.9464 44.5706 38.864 44.5706 36.3245C44.5706 34.8624 43.9893 33.7774 36.5519 33.0489C30.3312 32.434 26.4872 31.0649 26.4872 26.0894C26.4872 21.504 30.3545 18.776 36.8309 18.776C44.103 18.776 47.7093 21.2999 48.164 26.7249C48.1719 26.8162 48.1607 26.9081 48.1312 26.9948C48.1016 27.0816 48.0544 27.1612 47.9925 27.2287C47.9305 27.2963 47.8552 27.3502 47.7714 27.3871C47.6875 27.424 47.5969 27.443 47.5052 27.443H44.5525C44.4038 27.4428 44.2596 27.3917 44.144 27.2982C44.0284 27.2046 43.9483 27.0743 43.917 26.929C43.2066 23.785 41.4887 22.7775 36.8206 22.7775C31.5945 22.7775 30.9848 24.5988 30.9848 25.9628C30.9848 27.6161 31.7004 28.1018 38.7529 29.0344C45.7357 29.9618 49.0527 31.269 49.0527 36.1773C49.0527 41.1244 44.9219 43.9635 37.7247 43.9635L37.7557 43.935Z" fill="#00F461"/>
</g>
<defs>
<clipPath id="clip0_260_37">
<rect width="62" height="62" fill="white"/>
</clipPath>
</defs>
</svg>
