<svg width="32" height="32" viewBox="0 0 32 32" fill="none" xmlns="http://www.w3.org/2000/svg">
<path d="M24.0467 0H7.36124C3.29574 0 0 3.29574 0 7.36124V24.0467C0 28.1122 3.29574 31.4079 7.36124 31.4079H24.0467C28.1122 31.4079 31.4079 28.1122 31.4079 24.0467V7.36124C31.4079 3.29574 28.1122 0 24.0467 0Z" fill="#001E36"/>
<path d="M7.06641 21.8429V8.37673C7.06641 8.28508 7.10567 8.23282 7.19731 8.23282C7.41975 8.23282 7.62917 8.23282 7.93012 8.21969C8.2442 8.20656 8.57141 8.20656 8.92475 8.19356C9.27809 8.18043 9.65756 8.18043 10.0633 8.1673C10.4689 8.1543 10.8615 8.1543 11.2541 8.1543C12.3272 8.1543 13.2171 8.28508 13.95 8.5599C14.607 8.78301 15.206 9.1496 15.7036 9.63305C16.1253 10.0561 16.4511 10.5649 16.659 11.1249C16.8553 11.6746 16.9599 12.2373 16.9599 12.8262C16.9599 13.9516 16.6982 14.8807 16.1747 15.6137C15.6512 16.3465 14.9184 16.8961 14.0678 17.2102C13.1778 17.5374 12.1963 17.6552 11.1233 17.6552C10.8092 17.6552 10.5998 17.6552 10.4689 17.6421C10.3381 17.6289 10.1548 17.6289 9.90625 17.6289V21.8298C9.91925 21.9214 9.85386 21.9999 9.76221 22.0131H7.22345C7.11879 22.0131 7.06641 21.9607 7.06641 21.8429ZM9.91925 10.7585V15.1556C10.1025 15.1687 10.2726 15.1818 10.4296 15.1818H11.1233C11.6337 15.1818 12.1441 15.1033 12.6282 14.9463C13.047 14.8285 13.4134 14.5798 13.7013 14.2526C13.9762 13.9255 14.1071 13.4805 14.1071 12.9047C14.1193 12.4958 14.0149 12.0918 13.806 11.74C13.5836 11.3997 13.2695 11.1381 12.89 10.994C12.4058 10.7977 11.8823 10.7192 11.3457 10.7323C11.0055 10.7323 10.7045 10.7323 10.4559 10.7455C10.1941 10.7323 10.0109 10.7455 9.91925 10.7585ZM25.126 14.3574C24.7334 14.1479 24.3146 14.004 23.8697 13.9124C23.3854 13.8077 22.9013 13.7422 22.4039 13.7422C22.1422 13.7292 21.8674 13.7685 21.6187 13.8339C21.4487 13.8731 21.3046 13.9648 21.2131 14.0956C21.1476 14.2003 21.1083 14.3311 21.1083 14.4489C21.1083 14.5667 21.1607 14.6844 21.2392 14.7892C21.357 14.9331 21.5141 15.0509 21.6842 15.1426C21.9876 15.2997 22.2976 15.4438 22.6133 15.5744C23.32 15.81 24.0006 16.1371 24.6287 16.5297C25.0606 16.8045 25.4139 17.171 25.6625 17.6159C25.8719 18.0347 25.9766 18.4927 25.9636 18.9638C25.9766 19.5789 25.7934 20.194 25.4532 20.7043C25.0881 21.2267 24.5788 21.6315 23.9874 21.869C23.3461 22.1438 22.561 22.2879 21.6187 22.2879C21.0168 22.2879 20.4279 22.2355 19.839 22.1177C19.3775 22.038 18.9286 21.8972 18.5042 21.699C18.4125 21.6466 18.3471 21.5549 18.3601 21.4503V19.1732C18.3601 19.1339 18.3733 19.0816 18.4125 19.0554C18.4518 19.0293 18.491 19.0423 18.5303 19.0686C19.0407 19.3695 19.5772 19.5789 20.1531 19.7097C20.6503 19.8406 21.1738 19.906 21.6972 19.906C22.1946 19.906 22.5479 19.8406 22.7835 19.7228C22.9928 19.6312 23.1368 19.4088 23.1368 19.1732C23.1368 18.99 23.0321 18.8199 22.8228 18.6497C22.6133 18.4797 22.1815 18.2834 21.5402 18.0347C20.8824 17.8029 20.2577 17.4861 19.682 17.0924C19.2719 16.8001 18.9321 16.4201 18.6873 15.98C18.4779 15.5613 18.3733 15.1033 18.3864 14.6452C18.3864 14.0825 18.5434 13.5459 18.8313 13.0618C19.1585 12.5383 19.6427 12.1195 20.2054 11.8577C20.8205 11.5437 21.5926 11.3997 22.5217 11.3997C23.0583 11.3997 23.608 11.439 24.1445 11.5175C24.5371 11.5699 24.9165 11.6746 25.2699 11.8185C25.3223 11.8316 25.3747 11.884 25.4008 11.9363C25.4139 11.9886 25.4269 12.041 25.4269 12.0933V14.2265C25.4269 14.2788 25.4008 14.3311 25.3615 14.3574C25.2438 14.3835 25.1784 14.3835 25.126 14.3574Z" fill="#31A8FF"/>
</svg>
