<svg id="visual" viewBox="0 0 1980 300" width="1980" height="300" xmlns="http://www.w3.org/2000/svg" xmlns:xlink="http://www.w3.org/1999/xlink" version="1.1"><path d="M0 43L86 43L86 46L172 46L172 67L258 67L258 22L344 22L344 40L430 40L430 76L517 76L517 37L603 37L603 55L689 55L689 73L775 73L775 70L861 70L861 46L947 46L947 31L1033 31L1033 73L1119 73L1119 55L1205 55L1205 34L1291 34L1291 61L1377 61L1377 25L1463 25L1463 67L1550 67L1550 55L1636 55L1636 61L1722 61L1722 28L1808 28L1808 64L1894 64L1894 52L1980 52L1980 22L1980 0L1980 0L1894 0L1894 0L1808 0L1808 0L1722 0L1722 0L1636 0L1636 0L1550 0L1550 0L1463 0L1463 0L1377 0L1377 0L1291 0L1291 0L1205 0L1205 0L1119 0L1119 0L1033 0L1033 0L947 0L947 0L861 0L861 0L775 0L775 0L689 0L689 0L603 0L603 0L517 0L517 0L430 0L430 0L344 0L344 0L258 0L258 0L172 0L172 0L86 0L86 0L0 0Z" fill="#d5d5d5"></path><path d="M0 142L86 142L86 85L172 85L172 91L258 91L258 79L344 79L344 136L430 136L430 178L517 178L517 160L603 160L603 118L689 118L689 139L775 139L775 106L861 106L861 100L947 100L947 100L1033 100L1033 127L1119 127L1119 118L1205 118L1205 76L1291 76L1291 124L1377 124L1377 139L1463 139L1463 121L1550 121L1550 91L1636 91L1636 130L1722 130L1722 112L1808 112L1808 148L1894 148L1894 154L1980 154L1980 112L1980 20L1980 50L1894 50L1894 62L1808 62L1808 26L1722 26L1722 59L1636 59L1636 53L1550 53L1550 65L1463 65L1463 23L1377 23L1377 59L1291 59L1291 32L1205 32L1205 53L1119 53L1119 71L1033 71L1033 29L947 29L947 44L861 44L861 68L775 68L775 71L689 71L689 53L603 53L603 35L517 35L517 74L430 74L430 38L344 38L344 20L258 20L258 65L172 65L172 44L86 44L86 41L0 41Z" fill="#aaabad"></path><path d="M0 160L86 160L86 100L172 100L172 130L258 130L258 133L344 133L344 148L430 148L430 208L517 208L517 226L603 226L603 178L689 178L689 172L775 172L775 142L861 142L861 127L947 127L947 151L1033 151L1033 178L1119 178L1119 133L1205 133L1205 133L1291 133L1291 142L1377 142L1377 187L1463 187L1463 136L1550 136L1550 112L1636 112L1636 178L1722 178L1722 154L1808 154L1808 169L1894 169L1894 172L1980 172L1980 157L1980 110L1980 152L1894 152L1894 146L1808 146L1808 110L1722 110L1722 128L1636 128L1636 89L1550 89L1550 119L1463 119L1463 137L1377 137L1377 122L1291 122L1291 74L1205 74L1205 116L1119 116L1119 125L1033 125L1033 98L947 98L947 98L861 98L861 104L775 104L775 137L689 137L689 116L603 116L603 158L517 158L517 176L430 176L430 134L344 134L344 77L258 77L258 89L172 89L172 83L86 83L86 140L0 140Z" fill="#818387"></path><path d="M0 217L86 217L86 241L172 241L172 229L258 229L258 232L344 232L344 220L430 220L430 244L517 244L517 262L603 262L603 238L689 238L689 268L775 268L775 241L861 241L861 244L947 244L947 253L1033 253L1033 256L1119 256L1119 256L1205 256L1205 226L1291 226L1291 226L1377 226L1377 259L1463 259L1463 235L1550 235L1550 247L1636 247L1636 265L1722 265L1722 229L1808 229L1808 238L1894 238L1894 232L1980 232L1980 217L1980 155L1980 170L1894 170L1894 167L1808 167L1808 152L1722 152L1722 176L1636 176L1636 110L1550 110L1550 134L1463 134L1463 185L1377 185L1377 140L1291 140L1291 131L1205 131L1205 131L1119 131L1119 176L1033 176L1033 149L947 149L947 125L861 125L861 140L775 140L775 170L689 170L689 176L603 176L603 224L517 224L517 206L430 206L430 146L344 146L344 131L258 131L258 128L172 128L172 98L86 98L86 158L0 158Z" fill="#5a5d62"></path><path d="M0 256L86 256L86 271L172 271L172 250L258 250L258 262L344 262L344 265L430 265L430 289L517 289L517 289L603 289L603 274L689 274L689 283L775 283L775 283L861 283L861 259L947 259L947 274L1033 274L1033 274L1119 274L1119 274L1205 274L1205 265L1291 265L1291 250L1377 250L1377 286L1463 286L1463 271L1550 271L1550 277L1636 277L1636 286L1722 286L1722 265L1808 265L1808 271L1894 271L1894 259L1980 259L1980 262L1980 215L1980 230L1894 230L1894 236L1808 236L1808 227L1722 227L1722 263L1636 263L1636 245L1550 245L1550 233L1463 233L1463 257L1377 257L1377 224L1291 224L1291 224L1205 224L1205 254L1119 254L1119 254L1033 254L1033 251L947 251L947 242L861 242L861 239L775 239L775 266L689 266L689 236L603 236L603 260L517 260L517 242L430 242L430 218L344 218L344 230L258 230L258 227L172 227L172 239L86 239L86 215L0 215Z" fill="#353a40"></path><path d="M0 301L86 301L86 301L172 301L172 301L258 301L258 301L344 301L344 301L430 301L430 301L517 301L517 301L603 301L603 301L689 301L689 301L775 301L775 301L861 301L861 301L947 301L947 301L1033 301L1033 301L1119 301L1119 301L1205 301L1205 301L1291 301L1291 301L1377 301L1377 301L1463 301L1463 301L1550 301L1550 301L1636 301L1636 301L1722 301L1722 301L1808 301L1808 301L1894 301L1894 301L1980 301L1980 301L1980 260L1980 257L1894 257L1894 269L1808 269L1808 263L1722 263L1722 284L1636 284L1636 275L1550 275L1550 269L1463 269L1463 284L1377 284L1377 248L1291 248L1291 263L1205 263L1205 272L1119 272L1119 272L1033 272L1033 272L947 272L947 257L861 257L861 281L775 281L775 281L689 281L689 272L603 272L603 287L517 287L517 287L430 287L430 263L344 263L344 260L258 260L258 248L172 248L172 269L86 269L86 254L0 254Z" fill="#141a20"></path></svg>